<svg width="64" height="64" viewBox="0 0 64 64" fill="none" xmlns="http://www.w3.org/2000/svg">
<g clip-path="url(#clip0_2_870)">
<path d="M24.0727 0.000145647C23.3353 0.015479 22.7447 0.622146 22.7553 1.35948V9.39348C22.75 9.87415 23.0007 10.3241 23.4193 10.5701C23.8373 10.8108 24.35 10.8108 24.768 10.5701C25.1867 10.3241 25.4373 9.87415 25.432 9.39348V1.35948C25.4373 0.998812 25.296 0.648146 25.04 0.392146C24.784 0.136146 24.4333 -0.00518769 24.0727 0.000145647ZM12.0313 4.02681C11.4873 4.02681 11.0013 4.35681 10.792 4.85881C10.588 5.36615 10.708 5.94148 11.1007 6.32281L16.4547 11.6788C16.7893 12.0295 17.2913 12.1701 17.7567 12.0448C18.2273 11.9248 18.5933 11.5581 18.7133 11.0875C18.8387 10.6221 18.6973 10.1201 18.3473 9.78548L12.9933 4.42948C12.742 4.16815 12.3973 4.02681 12.0313 4.02681ZM36.114 4.02681C35.764 4.03215 35.4347 4.17881 35.194 4.42948L29.84 9.78548C29.4893 10.1201 29.3487 10.6221 29.474 11.0875C29.594 11.5581 29.96 11.9248 30.4307 12.0448C30.896 12.1701 31.398 12.0295 31.7327 11.6788L37.0867 6.32281C37.484 5.93615 37.5993 5.35015 37.3847 4.84281C37.1707 4.33015 36.6687 4.00615 36.114 4.02681ZM49.756 5.38681C48.4433 5.38681 47.126 5.88348 46.1327 6.87748L21.72 31.2968C21.3173 30.5595 21.1187 30.1675 20.3707 28.8861C19.1267 26.7675 17.7407 24.4715 16.4807 23.2061C14.546 21.2708 11.8687 19.9321 9.35933 19.2468C8.10933 18.9068 6.89667 18.7288 5.788 18.7708C4.67933 18.8128 3.608 19.0481 2.792 19.8588L0.392 22.2595C-0.130667 22.7821 -0.130667 23.6348 0.392 24.1581L7.73867 31.5061L13.4533 48.6455C13.5213 48.8441 13.6313 49.0221 13.7773 49.1681L24.2873 59.6808C28.606 64.0008 35.644 64.0008 39.9627 59.6808L42.2787 57.3641H41.7247C42.08 57.3641 42.42 57.2228 42.6713 56.9715L54.718 44.9215C56.7047 42.9288 56.7047 39.6655 54.718 37.6728C53.918 36.8721 52.9033 36.4855 51.8633 36.3281C52.5007 34.5188 52.14 32.4161 50.702 30.9781C49.902 30.1775 48.888 29.7908 47.8473 29.6335C48.4853 27.8241 48.1247 25.7215 46.6867 24.2835C46.0487 23.6455 45.2647 23.2895 44.4487 23.0595L53.3793 14.1261C55.3713 12.1335 55.3713 8.87015 53.3793 6.87748C52.386 5.88348 51.068 5.38681 49.756 5.38681ZM49.756 8.04415C50.378 8.04415 51 8.28415 51.4867 8.77081C52.454 9.73815 52.454 11.2655 51.4867 12.2335L39.44 24.2835C38.9327 24.8115 38.9433 25.6435 39.4607 26.1555C39.9733 26.6735 40.8047 26.6841 41.3327 26.1768C42.3 25.2088 43.8267 25.2088 44.794 26.1768C45.7613 27.1441 45.7613 28.6715 44.794 29.6388L43.4553 30.9781C42.948 31.5061 42.9587 32.3375 43.476 32.8501C43.9887 33.3681 44.82 33.3788 45.348 32.8715C46.3153 31.9035 47.842 31.9035 48.8093 32.8715C49.7767 33.8388 49.7767 35.3661 48.8093 36.3335L47.4707 37.6728C46.964 38.2008 46.974 39.0321 47.492 39.5448C48.004 40.0628 48.8353 40.0728 49.364 39.5655C50.3313 38.5981 51.858 38.5981 52.8253 39.5655C53.7927 40.5335 53.7927 42.0608 52.8253 43.0335L40.778 55.0781L38.07 57.7875C34.776 61.0828 29.474 61.0828 26.18 57.7875L15.8953 47.4948L10.18 30.3555C10.112 30.1621 10.0027 29.9841 9.856 29.8328L3.23133 23.2061L4.68467 21.7521C4.74733 21.6895 5.16067 21.4748 5.89267 21.4488C6.62467 21.4228 7.60733 21.5481 8.65867 21.8355C10.7553 22.4055 13.108 23.6188 14.5933 25.1048C15.294 25.8108 16.852 28.1748 18.06 30.2355C19.2673 32.3015 20.2347 34.1215 20.2347 34.1215C20.4333 34.4975 20.7993 34.7541 21.218 34.8168C21.636 34.8795 22.0647 34.7381 22.3627 34.4401L48.0253 8.77081C48.5113 8.28415 49.134 8.04415 49.756 8.04415Z" fill="black"/>
<path d="M0.234667 63.3955C0.156 63.3955 0.0973332 63.3721 0.0586667 63.3261C0.0193333 63.2801 0 63.2241 0 63.1581C0 63.0908 0.0200001 63.0348 0.0613333 62.9901C0.102 62.9441 0.16 62.9208 0.234667 62.9208C0.309333 62.9208 0.368 62.9408 0.410667 62.9795C0.454667 63.0168 0.477333 63.0741 0.477333 63.1501C0.477333 63.2268 0.456667 63.2875 0.416 63.3315C0.374667 63.3741 0.314667 63.3955 0.234667 63.3955Z" fill="black"/>
</g>
<defs>
<clipPath id="clip0_2_870">
<rect width="64" height="63.3955" fill="white"/>
</clipPath>
</defs>
</svg>
